<svg width="300" height="300" viewBox="0 0 300 300" fill="none" xmlns="http://www.w3.org/2000/svg">
<rect width="300" height="300" rx="150" fill="white"/>
<path d="M145.086 128.112C146.624 125.849 148.307 125.561 149.672 125.561C151.037 125.561 153.312 125.849 154.85 128.112C166.969 144.739 186.972 177.861 201.729 202.293C211.351 218.227 218.742 230.464 220.259 232.022C225.951 237.868 233.758 234.224 238.294 227.593C242.76 221.064 244 216.48 244 211.589C244 208.258 179.298 88.059 172.782 78.0539C166.516 68.4307 164.474 66 153.749 66H145.723C135.03 66 133.485 68.4307 127.218 78.0539C120.702 88.059 56 208.258 56 211.589C56 216.48 57.2398 221.064 61.706 227.593C66.2423 234.224 74.0491 237.868 79.7413 232.022C81.2578 230.464 88.6488 218.227 98.2718 202.293C113.028 177.861 132.967 144.739 145.086 128.112Z" fill="#000020"/>
</svg>
