<svg width="24" height="24" viewBox="0 0 24 24" fill="none" xmlns="http://www.w3.org/2000/svg">
<path d="M20.5 2H21.25C21.25 1.58579 20.9142 1.25 20.5 1.25V2ZM3.5 22H2.75C2.75 22.1989 2.82902 22.3897 2.96967 22.5303C3.11032 22.671 3.30109 22.75 3.5 22.75V22ZM13.5 22V22.75H13.8107L14.0303 22.5303L13.5 22ZM20.5 15L21.0303 15.5303L21.25 15.3107V15H20.5ZM13.5 15V14.25H12.75V15H13.5ZM4.25 22L4.25 11H2.75L2.75 22H4.25ZM3.5 22.75H13.5V21.25H3.5V22.75ZM21.25 15V2H19.75V15H21.25ZM14.0303 22.5303L21.0303 15.5303L19.9697 14.4697L12.9697 21.4697L14.0303 22.5303ZM14.25 22V15H12.75V22H14.25ZM13.5 15.75H20.5V14.25H13.5V15.75ZM12 2.75H20.5V1.25H12V2.75Z" fill="currentColor"/>
<path d="M7.70569 9.44141C8.45931 10.1862 9.68117 10.1862 10.4348 9.44141C11.1884 8.69662 11.1884 7.48908 10.4348 6.74429L8.7291 5.05859C8.06295 4.40025 7.03095 4.32384 6.27987 4.82935M6.29431 2.55859C5.54069 1.8138 4.31883 1.8138 3.56521 2.55859C2.8116 3.30338 2.8116 4.51092 3.56521 5.25571L5.2709 6.94141C5.94932 7.61187 7.00718 7.67878 7.76133 7.14213" stroke="currentColor" stroke-width="1.5" stroke-linejoin="round"/>
</svg>
