<svg width="24" height="24" viewBox="0 0 24 24" fill="none" xmlns="http://www.w3.org/2000/svg">
<path d="M20.5 2H21.25C21.25 1.58579 20.9142 1.25 20.5 1.25V2ZM3.5 22H2.75C2.75 22.1989 2.82902 22.3897 2.96967 22.5303C3.11032 22.671 3.30109 22.75 3.5 22.75V22ZM13.5 22V22.75H13.8107L14.0303 22.5303L13.5 22ZM20.5 15L21.0303 15.5303L21.25 15.3107V15H20.5ZM13.5 15V14.25H12.75V15H13.5ZM4.25 22L4.25 12H2.75L2.75 22H4.25ZM3.5 22.75H13.5V21.25H3.5V22.75ZM21.25 15V2H19.75V15H21.25ZM14.0303 22.5303L21.0303 15.5303L19.9697 14.4697L12.9697 21.4697L14.0303 22.5303ZM14.25 22V15H12.75V22H14.25ZM13.5 15.75H20.5V14.25H13.5V15.75ZM12 2.75H20.5V1.25H12V2.75Z" fill="currentColor"/>
<path d="M4 7L7 10M10 7L7 10M7 10L7 2" stroke="currentColor" stroke-width="1.5"/>
</svg>
