<svg width="406" height="109" viewBox="0 0 406 109" fill="none" xmlns="http://www.w3.org/2000/svg">
<path d="M23.421 102.73L23.4209 102.73L23.4322 102.736C29.4005 105.865 35.8581 107.428 42.7894 107.428C50.3085 107.428 57.2118 105.571 63.4778 101.853C69.8321 98.14 74.8235 93.0528 78.4399 86.6064C82.1561 80.0569 84.0081 72.7807 84.0081 64.7997V4.71798V3.71798H83.0081H33.1998H32.1998V4.71798V10.0109V11.0109H33.1998H76.8555V64.7997C76.8555 71.5068 75.3196 77.533 72.2633 82.9017C69.1985 88.2855 65.0753 92.4964 59.8865 95.5525C54.7018 98.6062 49.0097 100.135 42.7894 100.135C37.1263 100.135 31.8468 98.8846 26.9368 96.3865C22.1162 93.7903 18.1347 90.2727 14.9826 85.8263C11.833 81.2883 9.9371 76.295 9.28874 70.8331L9.18402 69.951H8.29571H3H1.89336L2.00511 71.0519C2.68986 77.798 4.9425 83.9658 8.75868 89.5404C12.5702 95.1082 17.4612 99.5074 23.421 102.73ZM129.055 6.71463L129.049 6.71797C122.603 10.5252 117.472 15.7036 113.666 22.2392C109.855 28.7826 107.948 35.8706 107.948 43.485V65.515C107.948 73.1294 109.855 80.2174 113.666 86.7608C117.472 93.2964 122.603 98.4748 129.049 102.282L129.055 102.285C135.604 106.095 142.743 108 150.455 108C158.165 108 165.258 106.096 171.714 102.284C178.255 98.4775 183.436 93.2991 187.244 86.7608C191.055 80.2174 192.961 73.1294 192.961 65.515V43.485C192.961 35.8706 191.055 28.7826 187.244 22.2392C183.436 15.7009 178.255 10.5226 171.714 6.7164C165.258 2.90426 158.165 1 150.455 1C142.743 1 135.604 2.9047 129.055 6.71463ZM217.044 104.282V105.282H218.044H223.34H224.34V104.282V39.1992C235.709 39.3599 246.222 42.2685 255.898 47.9246L255.901 47.9267C265.96 53.7521 273.897 61.6852 279.726 71.7386L279.728 71.7421C285.552 81.6951 288.465 92.5352 288.465 104.282V105.282H289.465H294.76H295.76V104.282V4.71798V3.71798H294.76H289.465H288.465V4.71798V72.681C285.052 65.6354 280.565 59.2927 275.006 53.6561C268.331 46.7913 260.541 41.4723 251.644 37.7022C243.036 33.9624 233.932 32.031 224.34 31.9057V4.71798V3.71798H223.34H218.044H217.044V4.71798V104.282ZM322.562 104.139V105.139H323.562H404H405V104.139V4.57493V3.57493H404H398.704H397.704V4.57493V69.8706L329.842 3.85812L329.551 3.57493H329.144H323.562H322.562V4.57493V104.139ZM140.04 76.5834C137.349 73.5349 135.997 69.8644 135.997 65.515V43.342C135.997 38.8913 137.352 35.2289 140.03 32.2846C142.688 29.3631 146.132 27.891 150.455 27.891C154.675 27.891 158.074 29.3582 160.736 32.2846C163.414 35.2289 164.769 38.8913 164.769 43.342V65.515C164.769 69.8644 163.417 73.5349 160.726 76.5834C158.061 79.602 154.664 81.109 150.455 81.109C146.142 81.109 142.701 79.597 140.04 76.5834Z" fill="currentColor" stroke="currentColor" stroke-width="2"/>
</svg>
