<svg width="24" height="24" viewBox="0 0 24 24" fill="none" xmlns="http://www.w3.org/2000/svg">
<path d="M20.9992 21.9955H3L3.0008 15L9 12V10H15V12L20.9992 15V21.9955Z" stroke="currentColor" stroke-width="2" stroke-linejoin="round"/>
<path d="M14 17C14 18.1046 13.1046 19 12 19C10.8954 19 10 18.1046 10 17C10 15.8954 10.8954 15 12 15C13.1046 15 14 15.8954 14 17Z" stroke="currentColor" stroke-width="2"/>
<path d="M20.3636 5.15035L20.7733 4.52212L20.7731 4.52198L20.3636 5.15035ZM16.8331 8H16.0831V8.51097L16.5586 8.69797L16.8331 8ZM21.9189 10L21.6444 10.698C21.8626 10.7837 22.1082 10.7626 22.3085 10.6409C22.5088 10.5191 22.6406 10.3108 22.6649 10.0776L21.9189 10ZM12 3L11.9997 3.75L12.0002 3.75L12 3ZM3.6364 5.15014L3.22695 4.52177L3.22674 4.52191L3.6364 5.15014ZM7.16689 8L7.44134 8.69798L7.91689 8.51099V8H7.16689ZM2.08108 9.99979L1.33511 10.0774C1.35937 10.3105 1.49121 10.5189 1.69148 10.6407C1.89174 10.7624 2.13741 10.7835 2.35553 10.6978L2.08108 9.99979ZM20.7731 4.52198C19.7487 3.85451 18.6214 3.31114 17.0257 2.88708L16.6405 4.33677C18.0792 4.71909 19.0605 5.19637 19.9541 5.77872L20.7731 4.52198ZM16.0831 3.61193V8H17.5831V3.61193H16.0831ZM16.5586 8.69797L21.6444 10.698L22.1934 9.30203L17.1076 7.30203L16.5586 8.69797ZM22.6649 10.0776C22.8277 8.51312 22.9944 5.97054 20.7733 4.52212L19.9539 5.77858C21.336 6.67979 21.3447 8.27175 21.173 9.92237L22.6649 10.0776ZM17.0257 2.88708C15.4216 2.46079 13.7086 2.24938 11.9997 2.25L12.0002 3.75C13.588 3.74943 15.1708 3.94619 16.6405 4.33677L17.0257 2.88708ZM4.04586 5.77851C4.93955 5.19616 5.92084 4.71888 7.35951 4.33656L6.97426 2.88687C5.37858 3.31092 4.25129 3.8543 3.22695 4.52177L4.04586 5.77851ZM6.41689 3.61171V8H7.91689V3.61171H6.41689ZM6.89244 7.30202L1.80663 9.30181L2.35553 10.6978L7.44134 8.69798L6.89244 7.30202ZM2.82705 9.92216C2.65527 8.27154 2.66405 6.67958 4.04607 5.77837L3.22674 4.52191C1.00557 5.97033 1.17229 8.51291 1.33511 10.0774L2.82705 9.92216ZM7.35951 4.33656C8.8292 3.94599 10.4118 3.74942 11.9997 3.75L12.0002 2.25C10.2914 2.24938 8.57845 2.46056 6.97426 2.88687L7.35951 4.33656Z" fill="currentColor"/>
</svg>
