<svg width="128" height="128" viewBox="0 0 128 128" fill="none" xmlns="http://www.w3.org/2000/svg">
<path d="M16.2189 15.762C16.0494 15.765 15.8827 15.8062 15.7313 15.8825C15.5799 15.9587 15.4476 16.0681 15.3442 16.2025C15.2408 16.3369 15.1691 16.4929 15.1342 16.6588C15.0994 16.8247 15.1023 16.9964 15.1429 17.161L39.5369 115.903C39.5843 116.096 39.6815 116.272 39.8189 116.415C39.9562 116.558 40.1288 116.663 40.3193 116.718C40.5097 116.773 40.7114 116.777 40.9039 116.729C41.0964 116.682 41.273 116.584 41.4159 116.447L114.802 45.857C114.945 45.7196 115.049 45.5469 115.104 45.3564C115.159 45.1659 115.163 44.9642 115.116 44.7717C115.068 44.5792 114.97 44.4026 114.833 44.2598C114.695 44.1169 114.522 44.0128 114.332 43.958L16.5499 15.806C16.4424 15.775 16.3308 15.7602 16.2189 15.762ZM17.8029 18.516L111.827 45.586L41.2609 113.463L17.8029 18.516Z" fill="white"/>
<path d="M65.1368 29.84C64.9882 29.8368 64.8404 29.8629 64.7019 29.917C64.5634 29.9711 64.4369 30.0519 64.3298 30.155L27.6538 65.46C27.5111 65.5975 27.407 65.7702 27.3522 65.9606C27.2973 66.1511 27.2936 66.3526 27.3413 66.545C27.3891 66.7373 27.4866 66.9137 27.6241 67.0564C27.7617 67.1992 27.9343 67.3032 28.1248 67.358L76.9838 81.44C77.1741 81.4949 77.3755 81.4987 77.5678 81.4511C77.76 81.4036 77.9364 81.3062 78.0792 81.169C78.2219 81.0317 78.3261 80.8592 78.3811 80.669C78.4362 80.4787 78.4402 80.2773 78.3928 80.085L66.2098 30.698C66.1502 30.4569 66.0128 30.2421 65.8188 30.087C65.6248 29.9319 65.3851 29.8451 65.1368 29.84ZM64.4858 33.14L75.7338 78.73L30.6298 65.73L64.4858 33.14Z" fill="white"/>
<path d="M46.914 47.313C46.7445 47.316 46.5778 47.3572 46.4264 47.4335C46.2749 47.5097 46.1426 47.6191 46.0393 47.7535C45.9359 47.8879 45.8641 48.0439 45.8293 48.2098C45.7944 48.3757 45.7974 48.5474 45.838 48.712L51.892 73.243C51.9394 73.4357 52.0367 73.6125 52.1742 73.7555C52.3116 73.8986 52.4844 74.0029 52.675 74.058C52.8656 74.113 53.0674 74.1169 53.26 74.0691C53.4526 74.0214 53.6292 73.9237 53.772 73.786L71.994 56.223C72.1367 56.0854 72.2407 55.9127 72.2955 55.7222C72.3503 55.5317 72.3539 55.3301 72.3061 55.1377C72.2582 54.9453 72.1606 54.769 72.0229 54.6263C71.8853 54.4836 71.7125 54.3797 71.522 54.325L47.245 47.357C47.1374 47.326 47.0259 47.3112 46.914 47.313ZM48.497 50.064L69.019 55.954L53.614 70.8L48.497 50.064Z" fill="white"/>
<path d="M40.9018 22.809C40.7531 22.8059 40.6053 22.8322 40.4668 22.8865C40.3283 22.9407 40.2019 23.0218 40.0948 23.125L21.8728 40.687C21.7301 40.8246 21.6261 40.9973 21.5713 41.1878C21.5165 41.3783 21.5129 41.5799 21.5607 41.7723C21.6086 41.9647 21.7062 42.141 21.8438 42.2837C21.9815 42.4264 22.1543 42.5303 22.3448 42.585L46.6178 49.554C46.8082 49.6087 47.0096 49.6124 47.2018 49.5647C47.394 49.517 47.5703 49.4195 47.713 49.2821C47.8556 49.1448 47.9596 48.9722 48.0145 48.7819C48.0695 48.5917 48.0733 48.3903 48.0258 48.198L41.9748 23.668C41.9156 23.4265 41.7784 23.2113 41.5843 23.0558C41.3903 22.9003 41.1504 22.8142 40.9018 22.809ZM40.2518 26.109L45.3658 46.845L24.8488 40.955L40.2518 26.109ZM89.4528 36.793C89.3043 36.79 89.1566 36.8164 89.0183 36.8707C88.88 36.9249 88.7538 37.0059 88.6468 37.109L70.4228 54.67C70.2798 54.8075 70.1756 54.9803 70.1207 55.171C70.0658 55.3616 70.062 55.5634 70.1099 55.7559C70.1577 55.9485 70.2555 56.125 70.3933 56.2677C70.5311 56.4105 70.7041 56.5144 70.8948 56.569L95.1688 63.537C95.3592 63.5917 95.5605 63.5954 95.7528 63.5477C95.945 63.5 96.1213 63.4025 96.264 63.2651C96.4066 63.1278 96.5106 62.9553 96.5655 62.765C96.6205 62.5747 96.6243 62.3733 96.5768 62.181L90.5268 37.651C90.4674 37.4095 90.3299 37.1944 90.1357 37.0391C89.9415 36.8838 89.7014 36.7979 89.4528 36.793ZM88.8028 40.093L93.9168 60.83L73.3998 54.94L88.8028 40.094V40.093ZM52.9438 71.864C52.6668 71.8746 52.4034 71.9867 52.2038 72.179L33.9818 89.742C33.8391 89.8796 33.7351 90.0523 33.6803 90.2428C33.6255 90.4333 33.6219 90.6349 33.6697 90.8273C33.7176 91.0197 33.8152 91.1961 33.9528 91.3387C34.0905 91.4814 34.2633 91.5853 34.4538 91.64L58.7318 98.608C58.922 98.6624 59.1231 98.6659 59.3151 98.6181C59.5071 98.5704 59.6831 98.473 59.8256 98.3358C59.9681 98.1986 60.072 98.0263 60.127 97.8363C60.182 97.6462 60.186 97.4451 60.1388 97.253L54.0838 72.722C54.0216 72.4696 53.8742 72.2464 53.6665 72.0901C53.4588 71.9338 53.2036 71.8539 52.9438 71.864ZM52.3618 75.164L57.4798 95.901L36.9578 90.011L52.3618 75.164Z" fill="white"/>
</svg>
