<svg width="165" height="165" viewBox="0 0 165 165" fill="none" xmlns="http://www.w3.org/2000/svg">
<rect width="165" height="165" rx="3" fill="black"/>
<path d="M41.8291 69.9364L41.8291 69.9365L41.8407 69.9431C45.167 71.8251 48.7713 72.7666 52.636 72.7666C56.8301 72.7666 60.6852 71.6475 64.178 69.4114C67.7148 67.1805 70.4863 64.1277 72.4889 60.2757C74.5471 56.3608 75.5686 52.0186 75.5686 47.2691V11.912V10.912H74.5686H47.4065H46.4065V11.912V15.0268V16.0268H47.4065H70.7587V47.2691C70.7587 51.1636 69.9325 54.6489 68.2985 57.7464C66.657 60.8581 64.4573 63.2773 61.7 65.0298C58.948 66.7788 55.9342 67.6518 52.636 67.6518C49.6327 67.6518 46.836 66.9378 44.23 65.5081C41.6684 64.0183 39.5479 61.9987 37.864 59.4358C36.1817 56.8195 35.1669 53.9385 34.8194 50.7797L34.7215 49.889H33.8254H30.9375H29.839L29.9419 50.9827C30.3205 55.008 31.5672 58.6959 33.6835 62.0319C35.7957 65.3615 38.5126 68.0013 41.8291 69.9364ZM99.422 12.7487L99.4163 12.7524C95.8312 15.0373 92.9844 18.1417 90.8783 22.0442C88.7682 25.954 87.7143 30.1866 87.7143 34.7258V47.6901C87.7143 52.2292 88.7682 56.4618 90.8783 60.3716C92.9844 64.2741 95.8312 67.3785 99.4163 69.6635L99.4221 69.6671C103.067 71.9557 107.05 73.1033 111.349 73.1033C115.648 73.1033 119.606 71.9561 123.202 69.6651C126.839 67.3811 129.713 64.2767 131.82 60.3716C133.931 56.4618 134.984 52.2292 134.984 47.6901V34.7258C134.984 30.1866 133.931 25.954 131.82 22.0442C129.713 18.1391 126.839 15.0347 123.202 12.7507C119.606 10.4597 115.648 9.3125 111.349 9.3125C107.05 9.3125 103.067 10.4601 99.422 12.7487ZM31.6546 154.688V155.688H32.6546H35.5426H36.5426V154.688V116.809C42.4737 116.978 47.9665 118.66 53.039 121.86L53.0426 121.862C58.4569 125.246 62.7354 129.856 65.8824 135.714L65.8843 135.718C69.0281 141.515 70.6026 147.832 70.6026 154.688V155.688H71.6026H74.4905H75.4905V154.688V96.0957V95.0957H74.4905H71.6026H70.6026V96.0957V134.101C68.8544 130.645 66.6768 127.489 64.0698 124.636C60.3914 120.554 56.0943 117.386 51.1834 115.14C46.5616 112.973 41.6783 111.824 36.5426 111.693V96.0957V95.0957H35.5426H32.6546H31.6546V96.0957V154.688ZM89.1973 154.603V155.603H90.1973H134.062H135.062V154.603V96.0115V95.0115H134.062H131.175H130.175V96.0115V133.331L93.9653 95.3217L93.6698 95.0115H93.2413H90.1973H89.1973V96.0115V154.603ZM106.035 53.9599C104.634 52.2473 103.92 50.176 103.92 47.6901V34.6416C103.92 32.0936 104.637 30.0304 106.026 28.383C107.39 26.7643 109.136 25.9605 111.349 25.9605C113.503 25.9605 115.226 26.7589 116.595 28.383C117.983 30.0304 118.701 32.0936 118.701 34.6416V47.6901C118.701 50.176 117.986 52.2474 116.585 53.9599C115.212 55.6381 113.492 56.4554 111.349 56.4554C109.147 56.4554 107.404 55.6324 106.035 53.9599Z" fill="white" stroke="white" stroke-width="2"/>
</svg>
